<svg width="226" height="141" viewBox="0 0 226 141" fill="none" xmlns="http://www.w3.org/2000/svg">
<path d="M25.16 50.32C39.0555 50.32 50.32 39.0555 50.32 25.16C50.32 11.2645 39.0555 0 25.16 0C11.2645 0 0 11.2645 0 25.16C0 39.0555 11.2645 50.32 25.16 50.32Z" fill="#F05227"/>
<path d="M225.54 99.6699H184.24V140.97H225.54V99.6699Z" fill="#F05227"/>
<path d="M68.83 140.97H3.51001V99.2201H68.83C76.22 99.2201 82.86 95.0401 85.35 88.8101L104.48 41.0101C113.39 18.7501 135.09 4.37012 159.76 4.37012H225.54V46.1201H159.76C152.37 46.1201 145.73 50.3001 143.24 56.5301L124.11 104.33C115.2 126.59 93.5 140.97 68.83 140.97Z" fill="#F05227"/>
</svg>
